{"title":"Sissi[1955]DvDrip[de]","uid":5138414,"size":796382123,"categoryP":"video","categoryS":"movies","magnet":"?xt=urn:btih:bd0a5d64fd0a3876150f7ca0a81211485030e15d&amp;dn=Sissi%5B1955%5DDvDrip%5Bde%5D&amp;tr=udp%3A%2F%2Ftracker.openbittorrent.com%3A80&amp;tr=udp%3A%2F%2Fopen.demonii.com%3A1337&amp;tr=udp%3A%2F%2Ftracker.coppersurfer.tk%3A6969&amp;tr=udp%3A%2F%2Fexodus.desync.com%3A6969","seeders":1,"leechers":0,"uploader":null,"files":2,"time":1256687794,"description":"No subtitles, audio in German.\n\nGeneral\nComplete name                    : C:Sissi[1955]DvDrip[de].avi\nFormat                           : MPEG-PS\nFile size                        : 759 MiB\nDuration                         : 1h 41mn\nOverall bit rate                 : 1 048 Kbps\n\nVideo\nID                               : 224 (0xE0)\nFormat                           : MPEG Video\nFormat version                   : Version 1\nFormat settings, Matrix          : Default\nDuration                         : 1h 41mn\nBit rate mode                    : Variable\nBit rate                         : 895 Kbps\nWidth                            : 352 pixels\nHeight                           : 288 pixels\nDisplay aspect ratio             : 4:3\nFrame rate                       : 25.000 fps\nScan type                        : Progressive\nBits/(Pixel*Frame)               : 0.353\nStream size                      : 648 MiB (85%)\n\nAudio\nID                               : 192 (0xC0)\nFormat                           : MPEG Audio\nFormat version                   : Version 1\nFormat profile                   : Layer 2\nDuration                         : 1h 41mn\nBit rate mode                    : Constant\nBit rate                         : 112 Kbps\nChannel(s)                       : 2 channels\nSampling rate                    : 44.1 KHz\nResolution                       : 16 bits\nStream size                      : 81.1 MiB (11%)\n\n","torrent":{"xt":"urn:btih:bd0a5d64fd0a3876150f7ca0a81211485030e15d","amp;dn":"Sissi%5B1955%5DDvDrip%5Bde%5D","amp;tr":["udp%3A%2F%2Ftracker.openbittorrent.com%3A80","udp%3A%2F%2Fopen.demonii.com%3A1337","udp%3A%2F%2Ftracker.coppersurfer.tk%3A6969","udp%3A%2F%2Fexodus.desync.com%3A6969"],"infoHash":"bd0a5d64fd0a3876150f7ca0a81211485030e15d","infoHashBuffer":{"type":"Buffer","data":[189,10,93,100,253,10,56,118,21,15,124,160,168,18,17,72,80,48,225,93]},"announce":[],"urlList":[]}}